<svg xmlns="http://www.w3.org/2000/svg" xmlns:xlink="http://www.w3.org/1999/xlink" width="64" height="64" viewBox="0 0 64 64">
    <defs>
        <path id="a" d="M28.647 44.93h2.17c-.002-.143 0-.286.003-.43a.59.59 0 0 1 .62-.58.6.6 0 0 1 .58.62c-.004.13-.005.26-.003.39H51.69a.6.6 0 0 0 .6-.6V22.77h-2.22l-3.83 3.12a1 1 0 0 1-.63.22 1 1 0 0 1-1-1.12l.24-2.24h-3.28a2.12 2.12 0 0 1-2.11-2.11v-2.93H12.31a.6.6 0 0 0-.6.6v12h6.71a1.81 1.81 0 0 1 1.8 1.81v8.15a1.81 1.81 0 0 1-1.8 1.8h-2.07l.14 1.31a1 1 0 0 1-.51 1 1 1 0 0 1-.48.11 1 1 0 0 1-.63-.23l-2.69-2.19h-.47v2.26a.6.6 0 0 0 .6.6h15.366a.6.6 0 0 1-.096-.7A10.35 10.35 0 0 1 30 41.31a1.56 1.56 0 0 1 2.34 0 9.57 9.57 0 0 1 2 2.26.6.6 0 0 1-.19.83.61.61 0 0 1-.83-.19 8.35 8.35 0 0 0-1.71-2c-.06 0-.25-.22-.36-.22-.11 0-.22.08-.42.25a9.27 9.27 0 0 0-2.11 2.59.6.6 0 0 1-.073.1zm2.38 2H12.31a2.6 2.6 0 0 1-2.6-2.6v-2.26h-3.9A1.81 1.81 0 0 1 4 40.27v-8.15c0-1 .81-1.81 1.81-1.81h3.9v-12a2.6 2.6 0 0 1 2.6-2.6h27.15V9.38a2.12 2.12 0 0 1 2.11-2.11H59a2.12 2.12 0 0 1 2.12 2.11v11.28A2.12 2.12 0 0 1 59 22.77h-4.71v21.56a2.6 2.6 0 0 1-2.6 2.6H32.25a9.67 9.67 0 0 0 3.31 5.37c1.72 1.39 4.78 2.77 9.6 1.53a.6.6 0 1 1 .3 1.16 15.52 15.52 0 0 1-3.88.52 10.55 10.55 0 0 1-6.76-2.27 10.91 10.91 0 0 1-3.793-6.31zm-.377-12.44a.47.47 0 0 1-.25-.07.5.5 0 0 1-.25-.43v-5.36a.5.5 0 0 1 .75-.43l4.65 2.68a.49.49 0 0 1 0 .86l-4.65 2.68a.45.45 0 0 1-.25.07zM6 40.07h6.54a1 1 0 0 1 .63.23l1.08.88a1 1 0 0 1 1-1.11h3v-7.76H6v7.76zM9.45 37a.8.8 0 1 1 0-1.6.8.8 0 0 1 0 1.6zm2.66 0a.8.8 0 1 1 0-1.6.8.8 0 0 1 0 1.6zm2.67 0a.8.8 0 1 1 0-1.6.8.8 0 0 1 0 1.6zM41.61 9.27a.11.11 0 0 0-.11.11v11.28c0 .06.05.11.11.11H46a1 1 0 0 1 1 1.11l-.1.92 2.18-1.8a1 1 0 0 1 .63-.22H59a.11.11 0 0 0 .12-.11V9.38a.11.11 0 0 0-.12-.11H41.61zm12.37 6.86a1.1 1.1 0 1 1 0-2.2 1.1 1.1 0 0 1 0 2.2zm-3.69 0a1.1 1.1 0 1 1 0-2.2 1.1 1.1 0 0 1 0 2.2zm-3.68 0a1.1 1.1 0 1 1 0-2.2 1.1 1.1 0 0 1 0 2.2zm2.58 36.75l6-6 2 2-6 6h-2v-2zm9.65-5.56l-1.05.96-2-2 1-1a.53.53 0 0 1 .77 0l1.28 1.27a.55.55 0 0 1 0 .77z"/>
    </defs>
    <g fill="none" fill-rule="evenodd">
        <path fill-rule="nonzero" d="M0 0h64v64H0z"/>
        <mask id="b" fill="#fff">
            <use xlink:href="#a"/>
        </mask>
        <use fill="#FFF" fill-rule="nonzero" xlink:href="#a"/>
        <g fill="#FFF" mask="url(#b)">
            <path d="M0 0h64v64H0z"/>
        </g>
    </g>
</svg>
