<svg xmlns="http://www.w3.org/2000/svg" xmlns:xlink="http://www.w3.org/1999/xlink" width="64" height="64" viewBox="0 0 64 64">
    <defs>
        <path id="a" d="M44.81 18.97H12.96v30.92h28.174A3 3 0 0 1 41 49V23.73a3 3 0 0 1 3-3h.81v-1.76zm2 0v1.76h2.74v-1.16a.6.6 0 0 0-.61-.6h-2.13zm-35.85 0H8.31a.6.6 0 0 0-.6.6v29.72a.6.6 0 0 0 .6.6h2.65V18.97zm47.15 7.8H43v18.09h15.11V26.77zm0-2v-1.04a1 1 0 0 0-1-1H44a1 1 0 0 0-1 1v1.04h15.11zm0 22.09H43V49a1 1 0 0 0 1 1h13.11a1 1 0 0 0 1-1v-2.14zm-14.918 5.03H8.31a2.6 2.6 0 0 1-2.6-2.6V19.57A2.6 2.6 0 0 1 8.31 17h40.63a2.61 2.61 0 0 1 2.61 2.6v1.13h5.56a3 3 0 0 1 3 3V49a3 3 0 0 1-3 3H44c-.28 0-.55-.038-.808-.11zm6.888-15.04a.47.47 0 0 1-.25-.07.5.5 0 0 1-.25-.43v-2.64a.52.52 0 0 1 .25-.44.55.55 0 0 1 .5 0l2.29 1.33a.49.49 0 0 1 0 .86l-2.29 1.32a.43.43 0 0 1-.25.07zM27.78 38a.47.47 0 0 1-.25-.07.5.5 0 0 1-.25-.43v-6.1a.5.5 0 0 1 .75-.43l5.25 3a.49.49 0 0 1 0 .86l-5.25 3a.43.43 0 0 1-.25.17z"/>
    </defs>
    <g fill="none" fill-rule="evenodd">
        <path fill-rule="nonzero" d="M0 0h64v64H0z"/>
        <mask id="b" fill="#fff">
            <use xlink:href="#a"/>
        </mask>
        <use fill="#FFF" fill-rule="nonzero" xlink:href="#a"/>
        <g fill="#FFF" mask="url(#b)">
            <path d="M0 0h64v64H0z"/>
        </g>
    </g>
</svg>
