<svg xmlns="http://www.w3.org/2000/svg" xmlns:xlink="http://www.w3.org/1999/xlink" width="64" height="64" viewBox="0 0 64 64">
    <defs>
        <path id="a" d="M37.93 20.21l1.12-4.78 2.1-.18 4.16 9.84-1.9.16-2-5.26c-.41-1-.8-2.17-1.2-3.26h-.06c-.18 1.14-.38 2.31-.61 3.41l-.22 1.12m-1.45-.84l.06-.22m1.51 2.61l-.8.07m-6.741 7.368c-2.396-2.16-5.505-2.257-7.309-2.078-3.834.382-7.792 2.553-8.945 4.89.38.253.738.537 1.07.848a3.001 3.001 0 0 1 2.565-2.228l12.619-1.432zm2.465-.28l3.338-.38.568-7.748a.37.37 0 0 0-.32-.39l-29-2.51a.36.36 0 0 0-.38.32L7.393 32.71c1.446-.636 3.625-1.27 5.877-.73.197.054.391.115.583.183 1.484-2.978 5.958-5.524 10.537-5.983 4.19-.409 7.712.934 9.974 3.788zm-17.461 7.371l-.113.061a6.34 6.34 0 0 0-4-3.48c-2.344-.555-4.687.581-5.6 1.114L6.9 38.34a.32.32 0 0 0 .09.25.38.38 0 0 0 .23.13l9.938.889-.255-2.27zm22.827-7.98l7.21-.819a3 3 0 0 1 2.947 1.496l6.753-.536a.61.61 0 0 0 .55-.65L55.7 10.26a.59.59 0 0 0-.65-.55L26.51 12a.23.23 0 0 0-.2.09c-.09.1-.35.53-.23 1.88l.362 4.471 11.318.98.95-4.061a.5.5 0 0 1 .45-.38l2.1-.18a.53.53 0 0 1 .51.3l4.14 9.817-.64-7.487a.51.51 0 0 1 .46-.54l1.78-.15a.52.52 0 0 1 .37.12.49.49 0 0 1 .17.34l.64 7.6a.49.49 0 0 1-.45.54l-1.78.15h-.05a.49.49 0 0 1-.32-.12.47.47 0 0 1-.12-.151.51.51 0 0 1-.05.171.49.49 0 0 1-.39.24l-1.9.16-.22-.04a.51.51 0 0 1-.47-.33l-.88-2.32-1.883.162-.447 6.097zM17.388 41.665L7 40.71a2.36 2.36 0 0 1-2.13-2.55l1.69-19.08a2.34 2.34 0 0 1 2.54-2.14l15.314 1.325-.334-4.125a4.44 4.44 0 0 1 .69-3.34 2.26 2.26 0 0 1 1.58-.8l28.54-2.29a2.62 2.62 0 0 1 2.8 2.39l1.49 18.59a2.59 2.59 0 0 1-2.38 2.8l-6.446.52 1.906 16.91a3 3 0 0 1-2.64 3.32L22 55.36l-.37.02a3 3 0 0 1-3-2.66l-1.242-11.055zm21.33-22.085c.14.05.274.113.4.187.22-1.078.397-2.187.542-3.057a.5.5 0 0 1 .45-.42.53.53 0 0 1 .57.33l.25.69c.31.86.62 1.73 1 2.55l.32.86.68-.06-2-4.83-1.39.11-.822 3.64zm1.357 1.257l1.095-.087-.17-.58c-.26-.51-.46-1.04-.65-1.58v-.01c-.1.54-.21 1.11-.32 1.66l-.072.368c.043.074.082.15.117.229zm6.365-4.347a1.66 1.66 0 0 1-1-.32 1.5 1.5 0 0 1-.57-1.06c-.043-.4.08-.802.34-1.11a1.74 1.74 0 0 1 2.29-.25c.332.257.539.642.57 1.06a1.52 1.52 0 0 1-1.47 1.64l-.16.04zm.84 14.01h-.11l-27.66 3.14a1 1 0 0 0-.88 1.11l2 17.74a1 1 0 0 0 1.11.88l27.66-3.14a1 1 0 0 0 .89-1.1l-2-17.75a1 1 0 0 0-1.01-.88zm-13.6 14.04a.48.48 0 0 1-.2 0 .52.52 0 0 1-.3-.4l-.45-4a.51.51 0 0 1 .7-.52l3.67 1.6a.5.5 0 0 1 .1.86L34 44.45a.53.53 0 0 1-.32.09zm-19.02-16.4h-.27a3.17 3.17 0 0 1-2.87-3.42 3.15 3.15 0 0 1 3.41-2.88 3.16 3.16 0 0 1-.27 6.31v-.01z"/>
    </defs>
    <g fill="none" fill-rule="evenodd">
        <path d="M0 0h64v64H0z"/>
        <mask id="b" fill="#fff">
            <use xlink:href="#a"/>
        </mask>
        <use fill="#FFF" fill-rule="nonzero" xlink:href="#a"/>
        <g fill="#FFF" mask="url(#b)">
            <path d="M0 0h64v64H0z"/>
        </g>
    </g>
</svg>
