<svg xmlns="http://www.w3.org/2000/svg" xmlns:xlink="http://www.w3.org/1999/xlink" width="64" height="64" viewBox="0 0 64 64">
    <defs>
        <path id="a" d="M50.11 15a4.53 4.53 0 0 1-4.53-4.53.9.9 0 0 0-.9-.9H19.32a.9.9 0 0 0-.9.9A4.53 4.53 0 0 1 13.89 15a.91.91 0 0 0-.89 1v14.72a26.3 26.3 0 0 0 18.74 25.21.86.86 0 0 0 .52 0A26.3 26.3 0 0 0 51 30.72V16a.91.91 0 0 0-.89-1zm-.91 15.72A24.35 24.35 0 0 1 32 54.12a24.49 24.49 0 0 1-17.2-23.4V16.79a6.34 6.34 0 0 0 5.36-5.37h23.68a6.34 6.34 0 0 0 5.36 5.37v13.93zM32 36.21a1 1 0 0 0 .71-.29l7.14-7.14a1 1 0 0 0-1.41-1.41L32 33.8l-3.79-3.74a1 1 0 1 0-1.41 1.42l4.49 4.44a1 1 0 0 0 .71.29zm0 15.14a1.005 1.005 0 0 0 .49-1.95c-8.14-4.43-13.86-9-13.26-28a1 1 0 0 0-2 0C16.59 41.46 23 46.6 31.52 51.23a1 1 0 0 0 .48.12z"/>
    </defs>
    <g fill="none" fill-rule="evenodd">
        <path d="M0 0h64v64H0z"/>
        <mask id="b" fill="#fff">
            <use xlink:href="#a"/>
        </mask>
        <use fill="#FFF" fill-rule="nonzero" xlink:href="#a"/>
        <g fill="#FFF" mask="url(#b)">
            <path d="M0 0h64v64H0z"/>
        </g>
    </g>
</svg>
