<svg xmlns="http://www.w3.org/2000/svg" xmlns:xlink="http://www.w3.org/1999/xlink" width="64" height="64" viewBox="0 0 64 64">
    <defs>
        <path id="a" d="M30 14V9.932c0-.515.448-.932 1-.932s1 .417 1 .932V14h15.979A3.016 3.016 0 0 1 51 17.01v21.98A3.016 3.016 0 0 1 47.979 42h-9.725l3.69 10.687c.174.509-.075 1.07-.556 1.254a.883.883 0 0 1-.315.059.931.931 0 0 1-.871-.647L36.3 42h-9.587l-3.9 11.345a.94.94 0 0 1-.879.655.886.886 0 0 1-.317-.06c-.485-.186-.736-.754-.561-1.27L24.724 42H14.021A3.016 3.016 0 0 1 11 38.99V17.01A3.016 3.016 0 0 1 14.021 14H30zm3.837 13.607c.104.1.165.244.163.397a.508.508 0 0 1-.245.449l-4.03 2.474a.42.42 0 0 1-.236.073.42.42 0 0 1-.244-.073.518.518 0 0 1-.245-.45V25.52a.53.53 0 0 1 .245-.45.463.463 0 0 1 .489 0l.266.165V25l4 2.505-.163.102zm-19.816-11.6c-.556 0-1.007.45-1.007 1.004v21.978c0 .555.451 1.004 1.007 1.004H47.98c.556 0 1.007-.45 1.007-1.004V17.011c0-.555-.451-1.004-1.007-1.004H14.02z"/>
    </defs>
    <g fill="none" fill-rule="evenodd">
        <path d="M0 0h64v64H0z"/>
        <mask id="b" fill="#fff">
            <use xlink:href="#a"/>
        </mask>
        <use fill="#FFF" fill-rule="nonzero" xlink:href="#a"/>
        <g fill="#FFF" mask="url(#b)">
            <path d="M0 0h64v64H0z"/>
        </g>
    </g>
</svg>
