<svg xmlns="http://www.w3.org/2000/svg" xmlns:xlink="http://www.w3.org/1999/xlink" width="64" height="64" viewBox="0 0 64 64">
    <defs>
        <path id="a" d="M49.484 53h-1.978a.989.989 0 0 1-.93-.663l-.157-.445c-.257-.771-.327-.89-.554-.989-.227-.099-.336-.069-1.127.307l-.415.207a.989.989 0 0 1-1.128-.197l-1.433-1.434a.989.989 0 0 1-.188-1.118l.207-.425c.356-.732.396-.86.297-1.098-.099-.237-.217-.306-.989-.563l-.435-.149a.989.989 0 0 1-.652-.93v-1.977a.989.989 0 0 1 .652-.989l.445-.148c.771-.257.89-.327.989-.564.099-.237.06-.366-.297-1.098l-.217-.425a.989.989 0 0 1 .188-1.117l1.433-1.434a.989.989 0 0 1 1.128-.198l.425.208c.731.365.86.405 1.087.306.228-.099.307-.217.574-.989l.148-.435a.989.989 0 0 1 .95-.643h1.977a.989.989 0 0 1 .93.663l.148.445c.266.771.336.89.563.989.228.099.366.06 1.108-.307l.415-.207a.989.989 0 0 1 1.127.197l1.434 1.434a.989.989 0 0 1 .207 1.088l-.207.425c-.356.732-.396.87-.297 1.098.099.227.218.297.989.564l.445.148a.989.989 0 0 1 .652.989v1.978a.989.989 0 0 1-.652.93l-.435.148c-.781.257-.9.326-.99.563-.088.238-.058.366.307 1.098l.198.425a.989.989 0 0 1-.188 1.118l-1.433 1.434a.989.989 0 0 1-1.128.197l-.425-.207c-.731-.366-.86-.406-1.087-.307-.228.1-.307.218-.574.99l-.148.434a.989.989 0 0 1-.96.673zm-1.315-1.978h.603a2.67 2.67 0 0 1 4.103-1.701l.465-.465a2.66 2.66 0 0 1 1.69-4.094v-.613a2.66 2.66 0 0 1-1.69-4.094l-.435-.435a2.67 2.67 0 0 1-4.103-1.642h-.604a2.67 2.67 0 0 1-4.103 1.701l-.435.435a2.66 2.66 0 0 1-1.69 4.094v.613a2.67 2.67 0 0 1 1.69 4.035l.435.425a2.827 2.827 0 0 1 2.502-.247 2.868 2.868 0 0 1 1.601 1.988h-.03zM28.154 45h-4.308a.99.99 0 0 1-.931-.653 20.734 20.734 0 0 1-.317-.92c-.565-1.682-.832-2.384-1.832-2.79-1-.405-1.674-.108-3.259.673l-.881.435a.991.991 0 0 1-1.13-.197l-3.05-3.047a.988.988 0 0 1-.188-1.118l.426-.88c.793-1.583 1.1-2.256.684-3.255-.416-1-1.11-1.266-2.783-1.83a17.38 17.38 0 0 1-.931-.317.99.99 0 0 1-.654-.93V25.83a.99.99 0 0 1 .654-.93l.93-.317c1.674-.564 2.368-.83 2.784-1.82.416-.99.109-1.672-.684-3.255-.129-.277-.277-.573-.426-.88a.988.988 0 0 1 .198-1.128l3.04-3.047a.991.991 0 0 1 1.13-.188l.881.426c1.585.791 2.268 1.088 3.259.682.99-.405 1.258-1.108 1.822-2.78.1-.296.208-.603.327-.93a.99.99 0 0 1 .93-.662h4.31a.99.99 0 0 1 .94.663l.317.93c.564 1.671.832 2.364 1.822 2.78.99.415 1.684.108 3.268-.683.278-.139.565-.287.872-.426a.991.991 0 0 1 1.13.188l3.04 3.077c.295.298.37.75.188 1.128-.139.306-.287.593-.426.87-.783 1.583-1.09 2.275-.684 3.265.407.989 1.11 1.256 2.783 1.82l.931.316a.99.99 0 0 1 .664.93v4.313a.99.99 0 0 1-.664.93l-.92.317c-1.684.564-2.378.84-2.794 1.83-.415.99-.108 1.672.684 3.245l.426.89a.988.988 0 0 1-.188 1.118l-3.05 3.047a.991.991 0 0 1-1.13.197l-.891-.435c-1.575-.781-2.258-1.088-3.239-.682-.98.405-1.277 1.117-1.842 2.8-.099.286-.198.593-.317.92a.99.99 0 0 1-.92.652zm-3.605-1.978h2.902l.08-.228c.574-1.721 1.079-3.215 2.97-3.957 1.892-.742 3.259-.08 4.883.732l.198.109 2.05-2.058-.07-.247c-.801-1.622-1.505-3.027-.732-4.887.782-1.86 2.268-2.364 3.961-2.968l.228-.079v-2.868l-.247-.09c-1.714-.573-3.2-1.078-3.962-2.967-.763-1.89-.08-3.275.733-4.946 0-.07.07-.149.109-.218l-2.07-1.969-.218.11c-1.634.81-3.04 1.503-4.952.731-1.911-.771-2.357-2.255-2.971-3.957a2.224 2.224 0 0 0-.08-.237H24.55c0 .08-.05.158-.08.237-.583 1.722-1.079 3.205-2.97 3.957-1.892.752-3.269.08-4.903-.732l-.228-.109-2.05 2.048.12.228c.801 1.622 1.505 3.027.732 4.896-.772 1.87-2.268 2.355-3.961 2.968l-.228.08v2.898l.237.079c1.724.574 3.21 1.078 3.962 2.968.753 1.889.07 3.274-.743 4.946-.03.075-.067.148-.109.217l2.07 1.969.228-.119c1.634-.811 3.04-1.503 4.902-.732 1.862.772 2.367 2.266 2.972 3.957l.05.238zm23.916 4.964a3.5 3.5 0 1 1 .03 0h-.03zm.03-5.063a1.523 1.523 0 1 0 0 3.045 1.523 1.523 0 0 0 0-3.045zM26.01 34a6 6 0 1 1-.02-12 6 6 0 0 1 .02 12zm-.002-9.986a3.997 3.997 0 1 0-.016 7.993 3.997 3.997 0 0 0 .016-7.993z"/>
    </defs>
    <g fill="none" fill-rule="evenodd">
        <path d="M0 0h64v64H0z"/>
        <mask id="b" fill="#fff">
            <use xlink:href="#a"/>
        </mask>
        <use fill="#FFF" fill-rule="nonzero" xlink:href="#a"/>
        <g fill="#FFF" mask="url(#b)">
            <path d="M0 0h64v64H0z"/>
        </g>
    </g>
</svg>
