<svg xmlns="http://www.w3.org/2000/svg" xmlns:xlink="http://www.w3.org/1999/xlink" width="64" height="64" viewBox="0 0 64 64">
    <defs>
        <path id="a" d="M19.34 46.208v1.412a1 1 0 0 1-2 0v-4.09a1 1 0 0 1 1-1h4a1 1 0 0 1 0 2h-1.816c.029.034.054.07.077.106A18.06 18.06 0 1 0 33.13 13.52c-.048 0-.095-.003-.142-.01-.591 0-1.175.007-1.758.09l-.1.02a1.002 1.002 0 1 1-.11-2 18.52 18.52 0 0 1 2.11-.11c.058 0 .115.005.17.015 10.828.332 19.452 9.207 19.452 20.06 0 10.91-8.715 19.821-19.622 20.065a20 20 0 0 1-13.79-5.442zm7.03-6.778a1 1 0 0 1-.73-1.68l6.66-7.17V18.33a1 1 0 0 1 2 0V31a.94.94 0 0 1-.27.68l-6.92 7.46a1 1 0 0 1-.74.29zM16.32 41.6a1 1 0 0 1-.88-.53 20.37 20.37 0 0 1-1.51-3.62 1 1 0 0 1 .67-1.25 1 1 0 0 1 1.24.67 18.46 18.46 0 0 0 1.36 3.25 1 1 0 0 1-.88 1.48zm-2.17-7.1a1 1 0 0 1-1-.9 19.52 19.52 0 0 1-.1-2c0-.63 0-1.27.09-1.9a1.005 1.005 0 0 1 2 .19c-.05.56-.08 1.14-.08 1.71 0 .57 0 1.22.09 1.82a1 1 0 0 1-.9 1.1l-.1-.02zm.7-7.38a.9.9 0 0 1-.28 0 1 1 0 0 1-.67-1.25 20 20 0 0 1 1.48-3.63 1.002 1.002 0 0 1 1.77.94 18.27 18.27 0 0 0-1.34 3.27 1 1 0 0 1-.96.67zm3.47-6.55a1 1 0 0 1-.63-.23 1 1 0 0 1-.14-1.41 20.07 20.07 0 0 1 2.75-2.78 1.001 1.001 0 1 1 1.28 1.54 17.83 17.83 0 0 0-2.48 2.51 1 1 0 0 1-.78.37zM24 15.83a1 1 0 0 1-.45-1.83 20.06 20.06 0 0 1 3.61-1.53 1.001 1.001 0 0 1 .6 1.91 18.29 18.29 0 0 0-3.26 1.32.9.9 0 0 1-.5.13z"/>
    </defs>
    <g fill="none" fill-rule="evenodd">
        <path fill-rule="nonzero" d="M0 0h64v64H0z"/>
        <mask id="b" fill="#fff">
            <use xlink:href="#a"/>
        </mask>
        <use fill="#FFF" fill-rule="nonzero" xlink:href="#a"/>
        <g fill="#FFF" mask="url(#b)">
            <path d="M0 0h64v64H0z"/>
        </g>
    </g>
</svg>
